<svg viewBox="0 0 24 24" fill="none" xmlns="http://www.w3.org/2000/svg">
  <defs>
    <linearGradient id="g_settings" x1="4" y1="4" x2="20" y2="20" gradientUnits="userSpaceOnUse">
      <stop stop-color="#60a5fa"/>
      <stop offset="1" stop-color="#a78bfa"/>
    </linearGradient>
  </defs>
  <g stroke="url(#g_settings)" stroke-width="1.75" stroke-linecap="round" stroke-linejoin="round">
  <circle cx="12" cy="12" r="2.8"/>
  <path d="M18.5 13.4c.1-.5.1-.9.1-1.4s0-.9-.1-1.4l2-1.5-2-3.4-2.4 1a7.5 7.5 0 0 0-2.2-1.3L13.5 3h-3l-.4 2.4a7.5 7.5 0 0 0-2.2 1.3l-2.4-1-2 3.4 2 1.5c-.1.5-.1.9-.1 1.4s0 .9.1 1.4l-2 1.5 2 3.4 2.4-1c.7.6 1.4 1 2.2 1.3l.4 2.4h3l.4-2.4c.8-.3 1.6-.7 2.2-1.3l2.4 1 2-3.4-2-1.5Z"/>
  </g>
</svg>
