<svg width="64" height="64" viewBox="0 0 64 64" fill="none" xmlns="http://www.w3.org/2000/svg">
  <defs>
    <linearGradient id="bg_app_mark" x1="8" y1="8" x2="56" y2="56" gradientUnits="userSpaceOnUse">
      <stop stop-color="#111827"/>
      <stop offset="0.52" stop-color="#18181B"/>
      <stop offset="1" stop-color="#020617"/>
    </linearGradient>
    <linearGradient id="fg_app_mark" x1="16" y1="14" x2="50" y2="50" gradientUnits="userSpaceOnUse">
      <stop stop-color="#7dd3fc"/>
      <stop offset="1" stop-color="#a78bfa"/>
    </linearGradient>
    <filter id="soft_app_mark" x="-20%" y="-20%" width="140%" height="140%">
      <feDropShadow dx="0" dy="8" stdDeviation="8" flood-color="#020617" flood-opacity="0.24"/>
    </filter>
  </defs>
  <rect x="6" y="6" width="52" height="52" rx="15" fill="url(#bg_app_mark)" filter="url(#soft_app_mark)"/>
  <path d="M17 10c9.8 1.4 18.5 1.1 30 0" stroke="white" stroke-opacity=".12" stroke-width="1.2"/>
  <circle cx="49" cy="15" r="3.2" fill="#7dd3fc" fill-opacity=".85"/>
  <circle cx="17" cy="49" r="2.2" fill="#a78bfa" fill-opacity=".55"/>
  <g transform="translate(14 14) scale(1.5)" stroke="url(#fg_app_mark)" fill="none" stroke-width="1.65" stroke-linecap="round" stroke-linejoin="round">
      <path d="M5.2 13.2c4.2-.4 7.3-2.7 9.7-7.2.2-.4.8-.3.9.1l2.3 10.4c.1.6-.5 1-1 .6l-3.6-2.3c-.3-.2-.7-.2-1 0l-6.7 4.1c-.6.4-1.3-.2-1.1-.9l1.4-3.9c.1-.5-.3-.9-.9-.9Z"/>
      <path d="M9.4 12.4 16 6.8"/>
  </g>
</svg>
