<svg width="64" height="64" viewBox="0 0 64 64" fill="none" xmlns="http://www.w3.org/2000/svg">
  <defs>
    <linearGradient id="bg_home" x1="8" y1="8" x2="56" y2="56" gradientUnits="userSpaceOnUse">
      <stop stop-color="#111827"/>
      <stop offset="0.52" stop-color="#18181B"/>
      <stop offset="1" stop-color="#020617"/>
    </linearGradient>
    <linearGradient id="fg_home" x1="16" y1="14" x2="50" y2="50" gradientUnits="userSpaceOnUse">
      <stop stop-color="#7dd3fc"/>
      <stop offset="1" stop-color="#a78bfa"/>
    </linearGradient>
    <filter id="soft_home" x="-20%" y="-20%" width="140%" height="140%">
      <feDropShadow dx="0" dy="8" stdDeviation="8" flood-color="#020617" flood-opacity="0.24"/>
    </filter>
  </defs>
  <rect x="6" y="6" width="52" height="52" rx="15" fill="url(#bg_home)" filter="url(#soft_home)"/>
  <path d="M17 10c9.8 1.4 18.5 1.1 30 0" stroke="white" stroke-opacity=".12" stroke-width="1.2"/>
  <circle cx="49" cy="15" r="3.2" fill="#7dd3fc" fill-opacity=".85"/>
  <circle cx="17" cy="49" r="2.2" fill="#a78bfa" fill-opacity=".55"/>
  <g transform="translate(14 14) scale(1.5)" stroke="url(#fg_home)" fill="none" stroke-width="1.65" stroke-linecap="round" stroke-linejoin="round">
      <path d="M3.7 10.7 12 4l8.3 6.7"/>
      <path d="M5.6 9.8v8.8c0 .9.7 1.6 1.6 1.6h3v-5.3h3.6v5.3h3c.9 0 1.6-.7 1.6-1.6V9.8"/>
  </g>
</svg>
