<svg width="64" height="64" viewBox="0 0 64 64" fill="none" xmlns="http://www.w3.org/2000/svg">
  <defs>
    <linearGradient id="bg_library" x1="8" y1="8" x2="56" y2="56" gradientUnits="userSpaceOnUse">
      <stop stop-color="#111827"/>
      <stop offset="0.52" stop-color="#18181B"/>
      <stop offset="1" stop-color="#020617"/>
    </linearGradient>
    <linearGradient id="fg_library" x1="16" y1="14" x2="50" y2="50" gradientUnits="userSpaceOnUse">
      <stop stop-color="#7dd3fc"/>
      <stop offset="1" stop-color="#a78bfa"/>
    </linearGradient>
    <filter id="soft_library" x="-20%" y="-20%" width="140%" height="140%">
      <feDropShadow dx="0" dy="8" stdDeviation="8" flood-color="#020617" flood-opacity="0.24"/>
    </filter>
  </defs>
  <rect x="6" y="6" width="52" height="52" rx="15" fill="url(#bg_library)" filter="url(#soft_library)"/>
  <path d="M17 10c9.8 1.4 18.5 1.1 30 0" stroke="white" stroke-opacity=".12" stroke-width="1.2"/>
  <circle cx="49" cy="15" r="3.2" fill="#7dd3fc" fill-opacity=".85"/>
  <circle cx="17" cy="49" r="2.2" fill="#a78bfa" fill-opacity=".55"/>
  <g transform="translate(14 14) scale(1.5)" stroke="url(#fg_library)" fill="none" stroke-width="1.65" stroke-linecap="round" stroke-linejoin="round">
      <path d="M5 5.3c0-1 .8-1.8 1.8-1.8h10.4c1 0 1.8.8 1.8 1.8v13.4c0 1-.8 1.8-1.8 1.8H6.8c-1 0-1.8-.8-1.8-1.8V5.3Z"/>
      <path d="M8.2 3.5v17M11.5 8h4.3M11.5 11.2h4.3M11.5 14.4h2.7"/>
  </g>
</svg>
