<svg width="64" height="64" viewBox="0 0 64 64" fill="none" xmlns="http://www.w3.org/2000/svg">
  <defs>
    <linearGradient id="bg_settings" x1="8" y1="8" x2="56" y2="56" gradientUnits="userSpaceOnUse">
      <stop stop-color="#111827"/>
      <stop offset="0.52" stop-color="#18181B"/>
      <stop offset="1" stop-color="#020617"/>
    </linearGradient>
    <linearGradient id="fg_settings" x1="16" y1="14" x2="50" y2="50" gradientUnits="userSpaceOnUse">
      <stop stop-color="#7dd3fc"/>
      <stop offset="1" stop-color="#a78bfa"/>
    </linearGradient>
    <filter id="soft_settings" x="-20%" y="-20%" width="140%" height="140%">
      <feDropShadow dx="0" dy="8" stdDeviation="8" flood-color="#020617" flood-opacity="0.24"/>
    </filter>
  </defs>
  <rect x="6" y="6" width="52" height="52" rx="15" fill="url(#bg_settings)" filter="url(#soft_settings)"/>
  <path d="M17 10c9.8 1.4 18.5 1.1 30 0" stroke="white" stroke-opacity=".12" stroke-width="1.2"/>
  <circle cx="49" cy="15" r="3.2" fill="#7dd3fc" fill-opacity=".85"/>
  <circle cx="17" cy="49" r="2.2" fill="#a78bfa" fill-opacity=".55"/>
  <g transform="translate(14 14) scale(1.5)" stroke="url(#fg_settings)" fill="none" stroke-width="1.65" stroke-linecap="round" stroke-linejoin="round">
      <circle cx="12" cy="12" r="2.8"/>
      <path d="M18.5 13.4c.1-.5.1-.9.1-1.4s0-.9-.1-1.4l2-1.5-2-3.4-2.4 1a7.5 7.5 0 0 0-2.2-1.3L13.5 3h-3l-.4 2.4a7.5 7.5 0 0 0-2.2 1.3l-2.4-1-2 3.4 2 1.5c-.1.5-.1.9-.1 1.4s0 .9.1 1.4l-2 1.5 2 3.4 2.4-1c.7.6 1.4 1 2.2 1.3l.4 2.4h3l.4-2.4c.8-.3 1.6-.7 2.2-1.3l2.4 1 2-3.4-2-1.5Z"/>
  </g>
</svg>
